<svg xmlns="http://www.w3.org/2000/svg" width="128" height="128" viewBox="0 0 48 48">
  <defs>
    <linearGradient id="g" x1="0" y1="0" x2="1" y2="1">
      <stop offset="0" stop-color="#0a66ff"></stop>
      <stop offset="1" stop-color="#084ccc"></stop>
    </linearGradient>
  </defs>
  <rect x="3" y="3" width="42" height="42" rx="10" fill="url(#g)"></rect>
  <path d="M14 30.5c0-5.2 4.1-9.5 9.5-9.5H26a.5.5 0 0 0 .5-.5v-2c0-.8-.7-1.5-1.5-1.5h-4c-3.6 0-6.5-2.9-6.5-6.5h3c0 1.9 1.6 3.5 3.5 3.5h4a4.5 4.5 0 0 1 4.5 4.5v2c0 2-1.6 3.5-3.5 3.5h-2.5c-3.6 0-6.5 2.9-6.5 6.5h-3Z" fill="#fff" opacity=".95"></path>
  <circle cx="33.5" cy="30.5" r="4.5" fill="#fff"></circle>
</svg>
